# ProBuilder 5.0.3
# https://unity3d.com/unity/features/worldbuilding/probuilder
# 4/5/2022 12:25:25 PM

mtllib ./House5Ruin2.mtl
o House5Ruin2

g Cube
v 0 0 0
v -2 0 0
v 0 2 0
v -2 2 0
v -2 0 -0.5
v -2 2 -0.5
v 0 0 -0.5
v 0 1.697963 -0.5
v 0.5 0 -0.5
v 0.5 0 0
v 0.5 1.697963 -0.5
v 0.5 2 0
v 0 0 4.25
v 0 2 4.25
v 0.5 0 4.25
v 0.5 2 4.25

vt 0 0
vt -2 0
vt 0 2
vt -2 2
vt -0.5 0
vt -0.5 2
vt 2 0
vt 2 2
vt 0 1.697963
vt 0.5 0
vt 0.5 1.697963
vt 0 1.034115
vt 2 1.034115
vt 0 0.4499689
vt 2 0.6061392
vt -0.5 1.697963
vt 0.5 2
vt -0.5 1.034115
vt -0.5 0.4499689
vt 4.25 0
vt 4.25 2
vt 0 4.25
vt -0.5 4.25
vt -4.25 2
vt -4.25 0

vn 0 0 1
vn -1 0 0
vn 0 0 -1
vn 1 0 0
vn 0 0.8559508 -0.5170573
vn 0.0746626 0.9223695 -0.2585286
vn 0.1493252 0.9887882 0
vn 0 1 0

usemtl Prototype_512x512_Red
f 3/3/1 4/4/1 2/2/1 1/1/1
f 4/3/2 6/6/2 5/5/2 2/1/2
f 6/8/3 8/9/3 7/1/3 5/7/3
f 11/11/4 12/3/4 10/1/4 9/10/4
f 8/14/6 6/15/7 4/13/6 3/12/5
f 11/16/3 9/5/3 7/1/3 8/9/3
f 15/10/1 16/17/1 14/3/1 13/1/1
f 12/18/5 11/19/5 8/14/5 3/12/5
f 13/20/2 14/21/2 3/3/2 1/1/2
f 14/22/8 16/23/8 12/5/8 3/1/8
f 16/24/4 15/25/4 10/1/4 12/3/4

