# ProBuilder 5.0.3
# https://unity3d.com/unity/features/worldbuilding/probuilder
# 4/11/2022 11:28:01 AM

mtllib ./House6Pillar.mtl
o House6Pillar

g Cube
v 0 0 0
v -0.5 0 0
v 0 2.172961 0
v -0.5 2.390687 0
v -0.5 0 -0.5
v -0.5 2.5 -0.5
v 0 0 -0.5
v 0 2.5 -0.5

vt 0 0
vt -0.5 0
vt 0 2.172961
vt -0.5 2.390687
vt 0 2.390687
vt -0.5 2.5
vt 0.5 0
vt 0.5 2.5
vt 0 2.5
vt 0.8675346 -1.024623
vt 1.412882 -1.024623
vt 0.9981018 -1.607638
vt 1.456525 -1.504974

vn 0 0 1
vn -1 0 0
vn 0 0 -1
vn 1 0 0
vn 0.3423932 0.7862973 0.514299
vn 0.1711966 0.8816112 0.3639406
vn 0 0.9769251 0.2135822

usemtl Prototype_512x512_Red
f 3/3/1 4/4/1 2/2/1 1/1/1
f 4/5/2 6/6/2 5/2/2 2/1/2
f 6/8/3 8/9/3 7/1/3 5/7/3
f 8/8/4 3/3/4 1/1/4 7/7/4
f 8/12/6 6/13/7 4/11/6 3/10/5

