# ProBuilder 5.0.3
# https://unity3d.com/unity/features/worldbuilding/probuilder
# 4/5/2022 1:37:12 PM

mtllib ./House2RuinsLong.mtl
o House2RuinsLong

g Wall Long
v 0 0 0
v -1.25 0 0
v 0 2 0
v -1.25 2 0
v -1.75 0 0
v -1.75 0 -0.5
v -1.75 2 0
v -1.75 2 -0.5
v -1.25 0 -0.5
v 0 0 -0.5
v -1.25 2 -0.5
v 0 2 -0.5
v 0 2.95 0
v -1.25 2.95 0
v 0 2.95 -0.5
v -1.25 2.742801 -0.5
v -1.25 2 7
v -1.25 0 7
v -1.75 2 7
v -1.75 0 7
v -1.75 2.742801 -0.5
v -1.75 2.95 0
v -1.25 2 6.5
v -1.25 0 6.5
v -1.75 2.100636 6.5
v -1.25 2.279627 6.5
v -1.75 0 6.5
v -1.75 2 6.5
v -1.75 2.100636 7
v -1.25 2.279627 7
v 0 1.837536 3
v -1.25 2 3
v 0 1.937536 3
v -1.25 2.1 3
v 1 1.746383 -0.5
v 1 1.746383 0
v 1 1.846383 -0.5
v 1 1.846383 0
v -1.75 2.1 -0.5
v -1.25 2.1 -0.5
v 0 2.1 -0.5
v -1.75 2.1 6.5
v -1.75 2.1 0
v -1.25 2.1 0
v -1.25 2.1 6.5
v -1.75 2.1 7
v -1.25 2.1 7
v 0 2.1 0
v 1 2.696383 -0.5
v 1 2.696383 0

vt 0 0
vt -1.25 0
vt 0 2
vt -1.25 2
vt -0.5 0
vt -0.5 2
vt 1.25 0
vt 1.25 2
vt 0.5 0
vt 0.5 2
vt 0 -0.5
vt 1.25 -0.5
vt -1.75 2
vt -1.75 0
vt 1.75 0
vt 1.75 2
vt 1.25 0.5881109
vt 1.25 1.129342
vt 1.75 0.5881109
vt 1.75 1.129342
vt -6.5 2
vt -6.5 0
vt 1.75 -0.3822308
vt 1.25 -0.3822308
vt 1.75 6.173028
vt 1.25 6.149836
vt 6.5 0
vt 6.5 2
vt -7 2
vt -7 0
vt 0.9396207 6.5
vt 0.4085486 6.5
vt 0.9396207 7
vt 0.4085486 7
vt 7 0
vt 7 2
vt 0 1.837536
vt 0 1.937536
vt -1.25 2.1
vt 0.5 1.746383
vt 0 1.746383
vt 0.5 1.846383
vt 0 1.846383
vt 1.75 2.1
vt 1.25 2.1
vt 0 2.1
vt 6.5 2.1
vt -0.5 2.1
vt -6.5 2.1
vt 7 2.1
vt -7 2.1
vt -1.75 2.1
vt 0 2.95
vt -1.25 2.95
vt 0.5 2.696383
vt 0 2.696383
vt 1.75 2.742801
vt 1.25 2.742801
vt 6.5 2.100636
vt -0.5 2.742801
vt -6.5 2.279627
vt 7 2.100636
vt -7 2.279627
vt -1.25 2.279627
vt -1.75 2.100636
vt -0.4916681 -0.5
vt -0.4916681 0
vt 0.5399916 -0.5
vt 0.5399916 0
vt -1 1.846383
vt -1 1.746383
vt 1 1.746383
vt 1 1.846383
vt -1 2.696383
vt 1 2.696383
vt 0.7252104 0
vt 0.7252104 -0.5
vt -0.3064493 0
vt -0.3064493 -0.5
vt 0 -0.108151
vt -1.25 -0.108151
vt 0 2.896245
vt -1.25 2.88746
vt -3 1.937536
vt -3 1.837536
vt 3 2
vt 3 2.1
vt 1.25 3
vt 0 3

vn 0 0 1
vn -1 0 0
vn 0 0 -1
vn 1 0 0
vn 0 1 0
vn -0.07568336 0.9565876 -0.1892084
vn -0.1513667 0.9131752 -0.3784168
vn 0 0.9238197 -0.3828279
vn 0 0.9915703 0.1295698
vn -0.1677291 0.9643275 0.1131077
vn -0.3354582 0.9370846 0.09664556
vn -0.3370359 0.9414918 0
vn -0.245834 -0.969312 0
vn 0.245834 0.969312 0
vn 0 -0.9985369 -0.05407548
vn -0.06444363 -0.9950981 -0.02703774
vn -0.1288873 -0.9916593 0
vn 0.0643509 0.9951162 0.02681288
vn 0.1287018 0.9902323 0.05362575

usemtl Prototype_512x512_Red
f 3/3/1 4/4/1 2/2/1 1/1/1
f 7/3/2 8/6/2 6/5/2 5/1/2
f 11/8/3 12/3/3 10/1/3 9/7/3
f 12/10/4 3/3/4 1/1/4 10/9/4
f 15/11/6 16/12/7 14/7/6 13/1/5
f 19/13/1 20/14/1 18/2/1 17/4/1
f 6/15/3 8/16/3 11/8/3 9/7/3
f 21/19/8 22/20/8 14/18/8 16/17/8
f 23/21/4 24/22/4 2/1/4 4/3/4
f 25/25/10 26/26/11 14/24/10 22/23/9
f 27/27/2 28/28/2 7/3/2 5/1/2
f 17/29/4 18/30/4 24/22/4 23/21/4
f 29/33/12 30/34/12 26/32/12 25/31/12
f 20/35/2 19/36/2 28/28/2 27/27/2
f 33/38/1 34/39/1 32/4/1 31/37/1
f 37/42/4 38/43/4 36/41/4 35/40/4
f 39/44/3 40/45/3 11/8/3 8/16/3
f 40/45/3 41/46/3 12/3/3 11/8/3
f 42/47/2 43/46/2 7/3/2 28/28/2
f 43/46/2 39/48/2 8/6/2 7/3/2
f 44/46/4 45/49/4 23/21/4 4/3/4
f 46/50/2 42/47/2 28/28/2 19/36/2
f 45/49/4 47/51/4 17/29/4 23/21/4
f 47/39/1 46/52/1 19/13/1 17/4/1
f 13/53/1 14/54/1 44/39/1 48/46/1
f 49/55/4 50/56/4 38/43/4 37/42/4
f 21/57/3 16/58/3 40/45/3 39/44/3
f 16/58/3 15/53/3 41/46/3 40/45/3
f 25/59/2 22/53/2 43/46/2 42/47/2
f 22/53/2 21/60/2 39/48/2 43/46/2
f 14/53/4 26/61/4 45/49/4 44/46/4
f 29/62/2 25/59/2 42/47/2 46/50/2
f 26/61/4 30/63/4 47/51/4 45/49/4
f 30/64/1 29/65/1 46/52/1 47/39/1
f 35/68/13 36/69/13 3/67/13 12/66/13
f 37/70/3 35/71/3 12/3/3 41/46/3
f 36/72/1 38/73/1 48/46/1 3/3/1
f 49/74/3 37/70/3 41/46/3 15/53/3
f 38/73/1 50/75/1 13/53/1 48/46/1
f 50/78/14 49/79/14 15/77/14 13/76/14
f 31/82/16 32/83/17 4/81/16 3/80/15
f 33/84/4 31/85/4 3/3/4 48/46/4
f 32/86/2 34/87/2 44/46/2 4/3/2
f 34/88/18 33/89/19 48/1/18 44/7/5

