# ProBuilder 5.0.3
# https://unity3d.com/unity/features/worldbuilding/probuilder
# 4/4/2022 1:27:21 PM

mtllib ./Prop_Cot_(4).mtl
o Prop Cot (4)

g Prop Cot (4)
v 0 0 0
v -1.8 0 0
v 0 0.1 0
v -1.8 0.1 0
v -1.8 0 -0.8
v -1.8 0.1 -0.8
v -1.8 0 -0.9
v 0 0 -0.9
v -1.8 0.1 -0.9
v 0 0.1 -0.9
v 0 0 -0.8
v 0 0.1 -0.8
v -1.8 -0.1 -0.8
v 0 -0.1 -0.8
v -1.8 -0.1 -0.9
v 0 -0.1 -0.9
v -1.9 0.1 -0.8
v -1.9 0 -0.8
v -1.9 0.1 -0.9
v -1.9 0 -0.9
v 0 0.1337528 -0.8
v -1.8 0.1337528 -0.8
v 0 0.1337528 -0.9
v -1.8 0.1337528 -0.9
v -1.8 0.1 0.1
v -1.8 0 0.1
v -1.9 0.1 0.1
v -1.9 0 0.1
v -1.9 0.1337528 -0.9
v -1.9 0.1337528 -0.8
v -1.8 -0.25 -0.8
v -1.8 -0.25 -0.9
v -1.9 -0.25 -0.8
v -1.9 -0.25 -0.9
v -1.9 0.1337528 0
v -1.8 0.1337528 0
v -1.9 -0.1 -0.8
v -1.8 -0.1 0
v -1.9 -0.1 0
v -1.9 0 0
v -1.9 0.1 0
v 0.1 0.1 0
v 0.1 0 0
v 0.1 0.1 0.1
v 0.1 0 0.1
v -1.9 0.1337528 0.1
v -1.8 0.1337528 0.1
v -1.8 -0.25 0
v -1.9 -0.25 0
v -1.8 -0.25 0.1
v -1.9 -0.25 0.1
v 0 0.1337528 0.1
v 0 0.1337528 0
v -1.8 -0.1 0.1
v 0 -0.1 0
v 0 -0.1 0.1
v 0 0 0.1
v 0 0.1 0.1
v 0.1 0.1 -0.9
v 0.1 0 -0.9
v 0.1 0.1337528 0.1
v 0.1 0.1337528 0
v 0 -0.25 0
v 0 -0.25 0.1
v 0.1 -0.25 0
v 0.1 -0.25 0.1
v 0.1 0.1337528 -0.8
v 0.1 -0.1 0
v 0.1 -0.1 -0.8
v 0.1 0 -0.8
v 0.1 0.1 -0.8
v 0.1 0.1337528 -0.9
v 0 -0.25 -0.8
v 0.1 -0.25 -0.8
v 0 -0.25 -0.9
v 0.1 -0.25 -0.9
v -1.9 -0.1 -0.9
v -1.9 -0.1 0.1
v 0.1 -0.1 0.1
v 0.1 -0.1 -0.9

vt 0 0
vt -1.8 0
vt 0 0.1
vt -1.8 0.1
vt -0.8 0
vt -0.8 0.1
vt 1.8 0
vt 1.8 0.1
vt 0.8 0
vt 0.8 0.1
vt 0 -0.8
vt 1.8 -0.8
vt -1.8 -0.8
vt -1.8 -0.9
vt 0 -0.9
vt -0.9 0.1
vt -0.9 0
vt 0.9 0
vt 0.9 0.1
vt 1.8 -0.9
vt -1.9 0.1
vt -1.9 0
vt 1.9 -0.9
vt 1.9 -0.8
vt -1.9 -0.8
vt -1.9 -0.9
vt 1.9 0
vt 1.9 0.1
vt -0.1 0.1
vt -0.1 0
vt 0.1 0
vt 0.1 0.1
vt -0.1 -0.8
vt 0.1 -0.8
vt -0.1 -0.9
vt 0.1 -0.9
vt 0 0.1337528
vt -1.8 0.1337528
vt 0.9 0.1337528
vt 0.8 0.1337528
vt 1.9 0.1337528
vt 1.8 0.1337528
vt -0.8 0.1337528
vt -0.9 0.1337528
vt 0.1 0.1337528
vt -1.9 0.1337528
vt -0.1 0.1337528
vt -1.8 -0.1
vt 0 -0.1
vt 0.8 -0.1
vt 0.9 -0.1
vt 1.8 -0.1
vt 1.9 -0.1
vt -0.9 -0.1
vt -0.8 -0.1
vt 0.1 -0.1
vt -1.9 -0.1
vt -0.1 -0.1
vt 0 -0.25
vt 0.1 -0.25
vt -0.9 -0.25
vt -0.8 -0.25
vt 0.8 -0.25
vt 0.9 -0.25
vt -0.1 -0.25
vt -1.9 -0.25
vt -1.8 -0.25
vt 1.8 -0.25
vt 1.9 -0.25

vn 0 0 1
vn -1 0 0
vn 0 0 -1
vn 1 0 0
vn 0 1 0
vn 0 -1 0

usemtl Prototype_512x512_Red
f 3/3/1 4/4/1 2/2/1 1/1/1
f 4/3/2 6/6/2 5/5/2 2/1/2
f 9/8/3 10/3/3 8/1/3 7/7/3
f 12/10/4 3/3/4 1/1/4 11/9/4
f 12/11/5 6/12/5 4/7/5 3/1/5
f 1/1/6 2/2/6 5/13/6 11/11/6
f 15/14/6 16/15/6 14/11/6 13/13/6
f 19/16/2 20/17/2 18/5/2 17/6/2
f 8/18/4 10/19/4 12/10/4 11/9/4
f 23/15/5 24/20/5 22/12/5 21/11/5
f 27/21/1 28/22/1 26/2/1 25/4/1
f 29/23/5 30/24/5 22/12/5 24/20/5
f 33/25/6 34/26/6 32/14/6 31/13/6
f 20/27/3 19/28/3 9/8/3 7/7/3
f 4/3/4 2/1/4 5/9/4 6/10/4
f 35/27/5 36/7/5 22/12/5 30/24/5
f 38/2/6 39/22/6 37/25/6 13/13/6
f 40/1/2 41/3/2 17/6/2 18/5/2
f 44/29/4 45/30/4 43/1/4 42/3/4
f 46/28/5 47/8/5 36/7/5 35/27/5
f 50/4/6 51/21/6 49/22/6 48/2/6
f 28/31/2 27/32/2 41/3/2 40/1/2
f 3/3/3 1/1/3 2/7/3 4/8/3
f 52/3/5 53/1/5 36/7/5 47/8/5
f 55/1/6 56/3/6 54/4/6 38/2/6
f 57/1/1 58/3/1 25/4/1 26/2/1
f 59/29/3 60/30/3 8/1/3 10/3/3
f 61/29/5 62/30/5 53/1/5 52/3/5
f 65/31/6 66/32/6 64/3/6 63/1/6
f 45/31/1 44/32/1 58/3/1 57/1/1
f 12/6/2 11/5/2 1/1/2 3/3/2
f 67/33/5 21/11/5 53/1/5 62/30/5
f 14/11/6 69/34/6 68/31/6 55/1/6
f 70/9/4 71/10/4 42/3/4 43/1/4
f 10/16/2 8/17/2 11/5/2 12/6/2
f 72/35/5 23/15/5 21/11/5 67/33/5
f 75/15/6 76/36/6 74/34/6 73/11/6
f 60/18/4 59/19/4 71/10/4 70/9/4
f 21/37/1 22/38/1 6/4/1 12/3/1
f 23/39/4 21/40/4 12/10/4 10/19/4
f 29/41/3 24/42/3 9/8/3 19/28/3
f 24/42/3 23/37/3 10/3/3 9/8/3
f 35/37/2 30/43/2 17/6/2 41/3/2
f 30/43/2 29/44/2 19/16/2 17/6/2
f 22/40/4 36/37/4 4/3/4 6/10/4
f 46/45/2 35/37/2 41/3/2 27/32/2
f 52/37/1 47/38/1 25/4/1 58/3/1
f 47/38/1 46/46/1 27/21/1 25/4/1
f 36/42/3 53/37/3 3/3/3 4/8/3
f 61/45/1 52/37/1 58/3/1 44/32/1
f 67/40/4 62/37/4 42/3/4 71/10/4
f 62/37/4 61/47/4 44/29/4 42/3/4
f 53/37/2 21/43/2 12/6/2 3/3/2
f 72/39/4 67/40/4 71/10/4 59/19/4
f 21/43/2 23/44/2 10/16/2 12/6/2
f 23/37/3 72/47/3 59/29/3 10/3/3
f 13/48/1 14/49/1 11/1/1 5/2/1
f 38/49/4 13/50/4 5/9/4 2/1/4
f 14/50/4 16/51/4 8/18/4 11/9/4
f 16/49/3 15/52/3 7/7/3 8/1/3
f 15/52/3 77/53/3 20/27/3 7/7/3
f 77/54/2 37/55/2 18/5/2 20/17/2
f 37/55/2 39/49/2 40/1/2 18/5/2
f 55/49/3 38/52/3 2/7/3 1/1/3
f 39/49/2 78/56/2 28/31/2 40/1/2
f 78/57/1 54/48/1 26/2/1 28/22/1
f 54/48/1 56/49/1 57/1/1 26/2/1
f 14/55/2 55/49/2 1/1/2 11/5/2
f 56/49/1 79/56/1 45/31/1 57/1/1
f 79/58/4 68/49/4 43/1/4 45/30/4
f 68/49/4 69/50/4 70/9/4 43/1/4
f 16/54/2 14/55/2 11/5/2 8/17/2
f 69/50/4 80/51/4 60/18/4 70/9/4
f 80/58/3 16/49/3 8/1/3 60/30/3
f 73/59/1 74/60/1 69/56/1 14/49/1
f 75/61/2 73/62/2 14/55/2 16/54/2
f 74/63/4 76/64/4 80/51/4 69/50/4
f 76/65/3 75/59/3 16/49/3 80/58/3
f 31/63/4 32/64/4 15/51/4 13/50/4
f 33/66/1 31/67/1 13/48/1 37/57/1
f 32/68/3 34/69/3 77/53/3 15/52/3
f 34/61/2 33/62/2 37/55/2 77/54/2
f 48/68/3 49/69/3 39/53/3 38/52/3
f 50/65/4 48/59/4 38/49/4 54/58/4
f 49/59/2 51/60/2 78/56/2 39/49/2
f 51/66/1 50/67/1 54/48/1 78/57/1
f 63/59/2 64/60/2 56/56/2 55/49/2
f 65/65/3 63/59/3 55/49/3 68/58/3
f 64/59/1 66/60/1 79/56/1 56/49/1
f 66/65/4 65/59/4 68/49/4 79/58/4

